<svg xmlns="http://www.w3.org/2000/svg" xmlns:xlink="http://www.w3.org/1999/xlink" width="500" zoomAndPan="magnify" viewBox="0 0 375 374.999991" height="500" preserveAspectRatio="xMidYMid meet" version="1.0"><defs><clipPath id="257f1e246e"><path d="M 0.46875 0 L 374.71875 0 L 374.71875 375 L 0.46875 375 Z M 0.46875 0 " clip-rule="nonzero"/></clipPath></defs><g clip-path="url(#257f1e246e)"><path fill="#445651" d="M 176.632812 1.03125 C 170.789062 2.324219 166.03125 4.429688 159.574219 8.640625 C 145.441406 17.882812 138.445312 32.558594 137.222656 55.527344 L 136.746094 63.816406 L 130.5625 58.3125 C 115.679688 45.128906 105.828125 40.984375 91.082031 41.664062 C 74.640625 42.410156 59.964844 50.632812 51.128906 64.085938 C 39.101562 82.296875 38.765625 102.273438 50.246094 119.535156 C 51.945312 122.117188 55.820312 127.007812 58.808594 130.40625 L 64.3125 136.589844 L 61.050781 136.589844 C 51.945312 136.589844 38.152344 139.035156 30.949219 141.820312 C 19.464844 146.371094 9.683594 155.75 4.722656 166.960938 C -2.886719 184.152344 -0.0351562 205.757812 11.652344 219.484375 C 22.046875 231.648438 34.753906 236.949219 56.972656 238.238281 C 60.984375 238.511719 64.246094 238.917969 64.246094 239.121094 C 64.246094 239.394531 62.410156 241.363281 60.097656 243.605469 C 47.597656 255.972656 41.074219 270.921875 42.023438 285.394531 C 43.25 304.894531 56.292969 322.699219 74.367188 329.765625 C 95.230469 337.851562 112.488281 333.636719 131.039062 315.972656 C 133.824219 313.390625 136.203125 311.214844 136.40625 311.214844 C 136.609375 311.214844 136.949219 314.75 137.222656 319.164062 C 138.648438 344.917969 147.34375 360.75 164.945312 369.71875 C 173.4375 374 179.824219 375.359375 189.949219 374.882812 C 199.460938 374.476562 203.945312 373.320312 211.421875 369.378906 C 223.992188 362.789062 232.078125 352.1875 235.8125 337.511719 C 237.375 331.191406 238.871094 319.914062 238.871094 314.207031 L 238.871094 311.148438 L 244.851562 316.449219 C 255.789062 326.300781 263.195312 330.582031 272.710938 332.6875 C 286.910156 335.8125 304.375 331.054688 315.925781 320.863281 C 327.273438 310.808594 333.523438 297.082031 333.523438 282.335938 C 333.523438 267.933594 329.175781 258.757812 314.363281 241.839844 L 311.578125 238.714844 L 318.574219 238.308594 C 327.542969 237.761719 336.445312 236.199219 342.96875 234.027344 C 354.246094 230.289062 364.304688 221.386719 369.738281 210.3125 C 373.953125 201.683594 375.039062 196.925781 375.039062 187.550781 C 375.039062 178.105469 373.953125 173.417969 369.605469 164.445312 C 366.953125 159.011719 365.460938 157.039062 360.566406 152.214844 C 354.382812 146.03125 349.761719 143.179688 342.152344 140.734375 C 336.105469 138.761719 327.613281 137.335938 318.914062 136.859375 C 314.835938 136.589844 311.578125 136.179688 311.578125 135.976562 C 311.578125 135.703125 313.140625 134.007812 315.042969 132.171875 C 323.261719 124.152344 329.921875 113.28125 332.4375 103.972656 C 333.929688 98.265625 333.929688 87.597656 332.367188 81.277344 C 330.875 75.027344 326.796875 66.601562 322.789062 61.234375 C 311.167969 45.945312 289.355469 38.132812 271.214844 42.820312 C 262.246094 45.128906 255.109375 49.480469 243.765625 59.601562 L 239.074219 63.882812 L 238.601562 56.207031 C 237.375 37.113281 232.621094 23.792969 223.652344 14.6875 C 214.136719 4.972656 201.839844 -0.0546875 187.773438 0.0820312 C 183.96875 0.0820312 178.941406 0.554688 176.632812 1.03125 Z M 195.042969 21.347656 C 200.546875 22.773438 205.035156 25.425781 208.839844 29.5 C 215.835938 36.90625 217.46875 43.90625 217.46875 66.261719 C 217.46875 84.609375 216.449219 91.742188 212.371094 101.933594 C 208.5 111.515625 194.027344 144.265625 193.140625 145.355469 C 192.667969 145.898438 191.308594 146.710938 190.085938 147.257812 C 188.113281 148.070312 187.503906 148.003906 184.988281 146.917969 C 182.132812 145.625 182.066406 145.488281 176.902344 133.460938 C 174.050781 126.804688 169.359375 115.933594 166.4375 109.410156 C 160.390625 95.617188 159.101562 90.113281 157.945312 74.890625 C 156.789062 59.195312 158.691406 42.75 162.429688 35.277344 C 168 24.335938 182.746094 18.019531 195.042969 21.347656 Z M 102.703125 63.816406 C 107.664062 66.058594 113.847656 70.8125 120.914062 77.8125 C 127.84375 84.675781 136.8125 95.546875 139.734375 100.574219 C 143.402344 106.894531 162.089844 151.875 162.089844 154.390625 C 162.089844 157.585938 159.441406 160.777344 156.042969 161.730469 C 153.597656 162.339844 152.441406 161.933594 133.144531 153.710938 C 122 148.886719 110.515625 144.128906 107.730469 143.113281 C 97.878906 139.578125 80.007812 124.359375 69.339844 110.429688 C 61.253906 99.828125 60.234375 89.023438 66.417969 78.222656 C 73.757812 65.308594 90.746094 58.582031 102.703125 63.816406 Z M 289.492188 62.863281 C 298.734375 65.308594 305.867188 71.289062 310.082031 79.988281 C 312.460938 85.082031 312.59375 85.558594 312.59375 92.421875 C 312.59375 99.082031 312.460938 99.894531 310.421875 103.972656 C 307.839844 109.273438 299.480469 119.464844 292.484375 125.988281 C 285.484375 132.511719 273.933594 141.003906 270.195312 142.363281 C 268.496094 143.042969 256.878906 147.800781 244.441406 153.03125 L 221.882812 162.476562 L 218.894531 161.117188 C 215.429688 159.621094 213.457031 157.039062 213.457031 153.984375 C 213.457031 152.082031 230.175781 111.855469 234.792969 102.613281 C 238.734375 94.730469 251.238281 80.191406 261.292969 71.765625 C 272.4375 62.457031 279.367188 60.28125 289.492188 62.863281 Z M 76.136719 157.652344 C 92.578125 159.011719 96.925781 160.371094 124.242188 172.53125 C 129.949219 175.113281 137.152344 178.171875 140.277344 179.464844 C 144.558594 181.230469 146.324219 182.316406 147.277344 183.8125 C 149.996094 188.363281 148.023438 192.644531 141.976562 195.023438 C 139.734375 195.90625 131.851562 199.238281 124.378906 202.5 C 94.277344 215.679688 92.917969 216.089844 75.117188 217.515625 C 58.671875 218.875 41.347656 216.496094 34.210938 211.941406 C 18.855469 202.023438 16.542969 180.074219 29.523438 167.164062 C 33.9375 162.75 37.40625 160.980469 44.539062 159.417969 C 54.730469 157.175781 63.835938 156.632812 76.136719 157.652344 Z M 329.855469 159.011719 C 333.386719 159.691406 337.871094 161.117188 339.84375 162.070312 C 344.394531 164.3125 349.21875 169.542969 351.9375 175.320312 C 353.90625 179.464844 354.042969 180.210938 354.042969 187.550781 C 354.042969 194.957031 353.90625 195.636719 351.871094 199.917969 C 349.289062 205.351562 344.804688 210.449219 340.320312 212.894531 C 333.183594 216.765625 314.363281 218.875 299.683594 217.515625 C 282.15625 215.816406 279.097656 214.863281 251.984375 202.769531 C 246.6875 200.390625 239.550781 197.335938 236.152344 195.976562 C 231.261719 194.003906 229.628906 192.984375 228.613281 191.355469 C 225.960938 186.9375 227.796875 182.453125 233.164062 180.414062 C 235 179.734375 242.746094 176.472656 250.421875 173.078125 C 280.457031 159.960938 282.699219 159.214844 297.648438 157.71875 C 306.414062 156.769531 322.246094 157.449219 329.855469 159.011719 Z M 186.007812 168.253906 C 188.25 168.523438 191.238281 168.386719 193.140625 167.914062 C 196.269531 167.097656 196.472656 167.164062 197.421875 168.660156 C 199.257812 171.445312 203.605469 175.929688 205.984375 177.355469 C 208.023438 178.648438 208.160156 178.921875 207.480469 180.617188 C 206.527344 182.996094 206.527344 192.101562 207.480469 194.546875 C 208.226562 196.246094 208.089844 196.519531 205.710938 198.011719 C 203.335938 199.507812 199.734375 203.175781 197.421875 206.574219 C 196.472656 207.933594 196.132812 208.003906 193.6875 207.324219 C 190.289062 206.371094 184.921875 206.371094 181.796875 207.253906 C 179.6875 207.867188 179.28125 207.796875 178.398438 206.4375 C 176.292969 203.246094 171.46875 198.558594 169.496094 197.742188 C 167.796875 196.996094 167.527344 196.585938 167.867188 195.429688 C 168.75 192.644531 169.019531 183.746094 168.339844 181.296875 C 167.660156 178.851562 167.730469 178.714844 169.902344 177.355469 C 172.554688 175.726562 176.765625 171.175781 177.855469 168.796875 C 178.535156 167.367188 179.007812 167.164062 180.367188 167.4375 C 181.386719 167.707031 183.902344 168.046875 186.007812 168.253906 Z M 158.011719 214.390625 C 160.324219 215.613281 162.089844 218.601562 162.089844 221.320312 C 162.089844 223.628906 141.707031 271.398438 138.648438 276.222656 C 130.5625 288.996094 112.011719 307.136719 102.90625 311.148438 C 90.066406 316.855469 72.464844 309.382812 65.671875 295.382812 C 61.664062 287.09375 61.527344 278.601562 65.261719 271.125 C 69 263.71875 77.699219 253.800781 88.027344 245.101562 C 97.402344 237.289062 102.226562 234.296875 112.078125 230.289062 C 116.902344 228.320312 127.777344 223.765625 136.203125 220.097656 C 144.628906 216.496094 152.578125 213.503906 153.800781 213.4375 C 155.023438 213.371094 156.925781 213.84375 158.011719 214.390625 Z M 239.007812 220.097656 C 247.703125 223.835938 259.121094 228.523438 264.351562 230.628906 C 274.542969 234.707031 278.824219 237.492188 290.308594 247.410156 C 300.5 256.246094 309.808594 268.339844 311.914062 275.40625 C 314.160156 282.882812 312.460938 292.054688 307.566406 299.460938 C 303.015625 306.253906 295.472656 311.078125 287.183594 312.574219 C 275.222656 314.679688 264.214844 308.429688 248.25 290.492188 C 237.988281 279.007812 235.8125 275.203125 225.078125 250.0625 C 211.964844 219.484375 212.710938 221.589844 214.003906 218.601562 C 215.15625 215.816406 218.554688 213.371094 221.339844 213.371094 C 222.359375 213.371094 230.308594 216.425781 239.007812 220.097656 Z M 192.257812 228.523438 C 194.5 230.015625 214.070312 276.019531 215.769531 283.832031 C 219.710938 302.042969 218.621094 328.132812 213.457031 339.480469 C 209.382812 348.316406 198.78125 354.632812 187.910156 354.703125 C 177.308594 354.703125 166.371094 348.316406 162.226562 339.6875 C 158.625 332.210938 156.652344 313.867188 157.878906 299.121094 C 159.304688 282.8125 159.914062 280.640625 171.058594 254.953125 C 176.5625 242.179688 181.117188 231.445312 181.117188 231.171875 C 181.117188 230.425781 183.832031 227.910156 185.191406 227.433594 C 186.6875 226.824219 190.558594 227.433594 192.257812 228.523438 Z M 192.257812 228.523438 " fill-opacity="1" fill-rule="nonzero"/></g></svg>