<svg xmlns="http://www.w3.org/2000/svg" xmlns:xlink="http://www.w3.org/1999/xlink" width="500" zoomAndPan="magnify" viewBox="0 0 375 374.999991" height="500" preserveAspectRatio="xMidYMid meet" version="1.0"><path fill="#445651" d="M 165.242188 308.75 C 170.601562 315.660156 178.703125 319.628906 187.460938 319.648438 L 187.519531 319.648438 C 196.277344 319.648438 204.394531 315.691406 209.839844 308.75 L 297.492188 195.855469 C 304.160156 187.285156 305.335938 175.914062 300.574219 166.167969 C 295.796875 156.410156 286.089844 150.347656 275.234375 150.347656 L 244.945312 150.347656 L 244.945312 20.71875 C 244.945312 9.296875 235.65625 0 224.234375 0 L 140.007812 0 C 128.585938 0 119.292969 9.296875 119.292969 20.71875 L 119.292969 150.347656 L 99.785156 150.347656 C 88.90625 150.347656 79.183594 156.421875 74.414062 166.199219 C 69.660156 175.960938 70.851562 187.335938 77.511719 195.851562 L 165.238281 308.75 Z M 96.390625 176.910156 C 96.777344 176.117188 97.730469 174.792969 99.785156 174.792969 L 131.515625 174.792969 C 138.265625 174.792969 143.738281 169.320312 143.738281 162.570312 L 143.738281 24.445312 L 220.503906 24.445312 L 220.503906 162.570312 C 220.503906 169.316406 225.972656 174.792969 232.726562 174.792969 L 275.234375 174.792969 C 277.273438 174.792969 278.222656 176.117188 278.613281 176.910156 C 279.078125 177.867188 279.386719 179.320312 278.195312 180.855469 L 190.5625 293.71875 C 189.546875 295.011719 188.222656 295.203125 187.519531 295.203125 C 186.558594 295.316406 185.523438 295.019531 184.539062 293.753906 L 96.789062 180.820312 C 95.613281 179.320312 95.925781 177.867188 96.390625 176.910156 Z M 345.804688 266.121094 L 345.804688 317.589844 C 345.804688 349.234375 320.050781 374.988281 288.402344 374.988281 L 86.601562 374.988281 C 54.957031 374.988281 29.203125 349.234375 29.203125 317.589844 L 29.203125 266.121094 L 53.648438 266.121094 L 53.648438 317.589844 C 53.648438 335.761719 68.429688 350.542969 86.601562 350.542969 L 288.402344 350.542969 C 306.574219 350.542969 321.359375 335.761719 321.359375 317.589844 L 321.359375 266.121094 Z M 345.804688 266.121094 " fill-opacity="1" fill-rule="nonzero"/></svg>